<?xml version="1.0" standalone="no"?>
<!DOCTYPE svg PUBLIC "-//W3C//DTD SVG 20010904//EN"
 "http://www.w3.org/TR/2001/REC-SVG-20010904/DTD/svg10.dtd">
<svg version="1.0" xmlns="http://www.w3.org/2000/svg"
 width="1000.000000pt" height="1000.000000pt" viewBox="0 0 1000.000000 1000.000000"
 preserveAspectRatio="xMidYMid meet">
<metadata>
Created by potrace 1.11, written by Peter Selinger 2001-2013
</metadata>
<g transform="translate(0.000000,1000.000000) scale(0.100000,-0.100000)"
fill="#000000" stroke="none">
<path d="M0 8995 c0 -868 2 -1005 14 -1005 8 0 17 4 20 8 8 14 82 7 109 -11
18 -12 25 -25 25 -45 -1 -16 2 -34 6 -40 3 -6 2 -13 -4 -17 -5 -3 -10 -1 -10
4 0 6 -5 11 -11 11 -6 0 -8 -9 -4 -20 4 -14 2 -20 -9 -20 -10 0 -15 -8 -13
-22 1 -17 -4 -24 -21 -26 -12 -2 -22 -8 -22 -13 0 -16 -30 -10 -53 12 l-22 20
-3 -132 c-3 -130 1 -157 17 -130 5 7 14 10 20 7 6 -4 14 0 17 8 3 9 10 16 16
16 5 0 6 -6 2 -12 -9 -16 33 19 58 47 9 11 17 16 18 11 0 -5 7 -3 15 4 12 10
13 16 4 27 -10 11 -9 12 5 7 9 -3 16 -10 16 -15 0 -5 5 -9 11 -9 6 0 9 6 6 13
-3 9 5 12 29 12 41 -2 65 -21 60 -49 -3 -11 -5 -21 -6 -21 -1 0 -4 -18 -6 -40
-3 -22 -9 -65 -14 -95 -6 -30 -12 -73 -15 -95 -10 -79 -39 -256 -49 -295 -3
-14 -8 -52 -11 -85 -3 -33 -10 -87 -15 -120 -24 -152 -41 -396 -42 -600 0
-224 10 -483 18 -497 3 -4 1 -8 -4 -8 -5 0 -12 -13 -15 -30 -7 -33 -23 -40
-30 -12 -3 13 -8 8 -20 -18 -8 -19 -12 -36 -7 -38 14 -5 -14 -51 -35 -56 -17
-5 -18 -7 -5 -16 13 -8 12 -10 -2 -10 -12 0 -18 -8 -18 -25 0 -14 -4 -25 -10
-25 -7 0 -10 -763 -10 -2270 l0 -2270 28 -5 c15 -3 41 -12 57 -20 17 -7 48
-19 70 -26 22 -7 45 -16 50 -20 6 -4 25 -10 43 -14 18 -4 45 -13 60 -21 15 -8
33 -14 40 -14 7 0 42 -14 77 -30 35 -17 81 -32 102 -35 21 -3 39 -9 41 -15 2
-5 12 -10 22 -10 11 0 23 -7 28 -15 4 -9 22 -18 39 -20 17 -2 51 -13 76 -25
24 -12 55 -23 68 -24 29 -4 51 -12 107 -37 42 -19 57 -42 25 -38 -10 1 -26 -1
-36 -6 -10 -4 -20 -5 -24 -2 -3 3 -12 0 -19 -8 -12 -11 -11 -20 2 -57 8 -23
16 -62 17 -85 2 -41 3 -42 24 -28 12 8 31 15 41 15 16 0 18 5 14 28 -3 15 -9
30 -14 33 -5 3 -4 17 3 32 13 28 33 38 23 12 -4 -8 -1 -15 5 -15 6 0 8 -7 5
-15 -8 -19 22 -31 40 -16 18 15 26 4 26 -40 0 -21 4 -40 10 -44 5 -3 7 -12 4
-19 -3 -7 1 -16 9 -19 9 -3 13 -16 11 -35 -4 -39 14 -54 56 -46 32 7 32 8 27
51 -3 30 -1 43 7 40 6 -2 13 -28 16 -58 3 -31 10 -53 16 -52 6 1 11 -3 12 -10
1 -26 12 -61 21 -70 11 -11 51 0 51 14 0 6 -4 7 -10 4 -5 -3 -10 -1 -10 4 0
33 55 -5 87 -59 28 -48 49 -35 45 30 -2 39 1 51 8 40 8 -12 10 -9 10 12 0 15
5 30 10 33 6 3 10 -5 10 -19 0 -14 8 -30 18 -35 10 -5 18 -19 19 -30 2 -25
-14 -28 -19 -3 -3 10 -6 4 -9 -15 -3 -18 -4 -31 -1 -28 8 7 32 -23 32 -40 0
-9 3 -14 8 -12 4 3 16 1 27 -4 19 -7 19 -8 -2 -8 -32 -1 -28 -15 7 -28 29 -11
30 -10 25 8 -6 18 -5 19 14 7 12 -7 16 -15 10 -19 -15 -9 17 -20 36 -13 8 4
15 15 15 25 0 10 5 19 10 19 6 0 10 -7 10 -15 0 -8 8 -15 19 -15 15 0 20 12
28 83 7 60 10 70 12 38 1 -30 5 -42 14 -38 13 5 18 -46 5 -59 -5 -4 -8 1 -8
12 0 10 -5 26 -10 34 -8 11 -9 8 -5 -11 4 -17 -1 -41 -14 -68 -17 -32 -18 -39
-6 -35 8 4 15 2 15 -4 0 -5 7 -13 16 -16 8 -3 12 -2 9 4 -8 12 21 43 34 36 4
-3 6 -17 3 -31 l-4 -25 4131 0 4131 0 0 5000 0 5000 -1281 0 -1282 0 27 -25
c14 -13 26 -29 26 -35 0 -5 6 -9 13 -8 6 2 11 -2 10 -9 -2 -7 4 -10 12 -7 11
5 13 2 9 -10 -5 -12 0 -16 20 -16 14 0 26 -6 26 -12 0 -7 16 -23 34 -36 64
-44 107 -92 101 -113 -4 -11 -2 -19 4 -19 6 0 11 -9 11 -20 0 -11 4 -20 9 -20
8 0 19 -29 28 -75 2 -10 8 -22 15 -26 6 -4 7 -12 4 -18 -4 -6 -2 -11 3 -11 6
0 11 -11 11 -25 0 -14 5 -25 10 -25 6 0 10 -11 10 -24 0 -13 4 -26 10 -28 5
-1 12 -21 15 -42 2 -22 9 -42 14 -45 4 -3 12 -21 16 -40 4 -18 16 -42 26 -52
15 -15 16 -19 4 -19 -19 0 -19 0 1 -38 16 -33 31 -45 20 -16 -3 8 -2 12 3 9
12 -7 11 -65 -1 -65 -5 0 -3 -6 4 -14 7 -8 18 -13 23 -13 6 1 9 -16 7 -38 -2
-43 13 -78 26 -59 4 7 32 11 70 9 34 -1 65 1 68 6 3 5 9 7 14 4 14 -8 59 16
65 35 7 21 37 31 56 19 12 -8 11 -11 -2 -22 -24 -19 -30 -45 -12 -55 10 -6 14
-16 9 -27 -6 -16 -8 -16 -32 0 -20 13 -28 14 -40 4 -8 -6 -14 -17 -14 -25 0
-7 -11 -25 -25 -40 -25 -27 -34 -74 -15 -74 6 0 10 -7 10 -16 0 -8 7 -22 15
-31 8 -8 13 -19 10 -24 -4 -5 0 -9 8 -9 16 0 47 31 47 47 0 15 93 58 98 45 2
-7 17 -6 46 2 58 18 81 31 67 40 -13 8 3 28 32 39 20 7 23 -3 5 -21 -9 -9 -8
-12 4 -12 19 0 35 18 40 45 5 33 21 43 60 37 25 -3 38 -1 38 7 0 6 6 11 13 11
15 0 67 51 67 66 0 5 9 15 19 21 15 9 21 9 29 0 10 -12 24 -57 28 -92 13 -94
45 -197 63 -203 7 -2 38 20 71 49 74 69 160 141 219 187 19 15 68 58 109 95
41 37 86 76 101 85 14 9 37 29 49 45 45 52 57 41 136 -125 156 -326 176 -372
171 -388 -5 -17 -18 -27 -113 -93 -60 -42 -86 -64 -157 -127 -68 -62 -157
-137 -235 -199 -36 -28 -91 -72 -122 -97 -42 -33 -70 -47 -100 -51 -33 -4 -53
-15 -85 -46 -24 -23 -43 -46 -43 -52 0 -6 11 -22 25 -35 14 -13 25 -29 25 -35
0 -7 13 -30 30 -51 16 -22 33 -44 37 -49 5 -6 25 -30 46 -53 21 -24 35 -47 32
-52 -4 -6 -13 -4 -21 5 -32 31 -69 8 -39 -25 16 -17 13 -21 -52 -72 -134 -107
-158 -121 -196 -114 -42 8 -92 46 -132 99 -84 113 -85 128 -9 193 30 26 64 54
75 62 17 12 19 21 14 56 -4 22 -11 46 -15 51 -13 18 -19 72 -9 82 8 8 7 13 0
17 -6 4 -11 2 -11 -5 0 -7 -3 -10 -6 -6 -8 8 35 97 47 97 5 0 9 8 9 18 0 14 2
15 10 2 5 -8 6 -16 1 -18 -4 -1 -6 -14 -3 -27 2 -14 -1 -31 -7 -39 -15 -18 14
-76 38 -76 10 0 30 14 44 31 14 17 30 28 35 25 5 -3 22 6 38 20 16 14 41 32
56 42 16 9 28 20 28 23 0 10 -28 37 -51 49 -25 14 -24 37 1 45 11 3 24 15 30
25 8 16 14 17 40 7 27 -10 33 -9 57 16 16 16 22 27 14 27 -11 0 -11 3 0 16 12
14 8 21 -26 50 -22 19 -39 39 -37 44 1 6 -4 10 -12 10 -9 0 -15 16 -18 49 -3
27 -12 57 -21 66 -10 9 -17 32 -17 51 0 24 -5 34 -15 34 -15 0 -20 -25 -15
-77 2 -27 -17 -64 -42 -81 -10 -7 -18 -19 -18 -27 0 -12 -39 -42 -47 -37 -12
8 -33 -7 -91 -64 -77 -77 -180 -147 -255 -176 -28 -11 -87 -23 -129 -27 l-78
-7 -14 30 c-10 21 -11 33 -4 37 6 4 7 12 3 19 -5 8 -4 11 2 7 12 -8 23 14 23
44 0 10 5 19 11 19 5 0 7 5 3 11 -4 7 -20 8 -41 4 -35 -6 -35 -6 -28 24 5 24
3 30 -7 26 -8 -3 -27 0 -44 7 -21 10 -30 21 -32 43 -2 19 -14 40 -34 57 -17
15 -47 52 -68 82 -20 31 -40 53 -43 49 -4 -3 -7 -2 -7 4 0 6 -11 26 -24 46
-13 19 -22 38 -19 40 2 3 -17 26 -42 52 -26 25 -44 49 -40 53 4 4 10 2 12 -5
2 -7 12 -9 21 -7 63 20 78 44 45 71 -13 10 -15 16 -5 19 6 3 12 11 12 16 0 6
-3 8 -7 5 -3 -4 -17 0 -29 8 -21 13 -24 13 -32 -2 -7 -11 -4 -26 9 -47 23 -38
24 -46 4 -46 -9 0 -18 12 -21 30 -4 17 -12 30 -18 30 -7 0 -21 8 -32 18 -10
10 -28 16 -39 14 -13 -2 -16 0 -8 5 19 13 -9 82 -43 110 -16 13 -35 28 -42 34
-22 18 -12 -6 13 -30 14 -13 25 -29 25 -36 0 -7 3 -22 6 -32 4 -10 -12 1 -36
25 -24 23 -46 42 -50 42 -4 0 -10 9 -13 21 -5 17 -2 20 14 16 10 -3 19 -2 19
2 0 12 -41 32 -52 25 -7 -4 -8 -3 -4 5 4 6 2 19 -5 28 -23 27 -93 67 -112 64
-12 -1 -20 5 -24 18 -3 12 -11 21 -18 21 -7 0 -16 6 -18 13 -3 6 -6 2 -6 -11
-1 -13 -5 -20 -11 -17 -17 11 -11 -7 8 -21 9 -7 12 -14 5 -14 -11 0 -53 51
-53 65 0 3 9 3 20 0 24 -8 24 -6 5 33 -14 27 -22 31 -74 37 -34 4 -67 14 -78
24 -20 19 -57 36 -49 22 3 -5 -15 -2 -42 6 -26 8 -67 14 -91 14 -38 0 -48 5
-82 40 -21 22 -43 38 -48 34 -5 -3 -26 4 -46 15 -19 11 -46 20 -60 20 -13 0
-30 9 -39 21 -12 18 -21 20 -54 14 -25 -4 -42 -2 -47 4 -10 17 -32 13 -40 -6
-5 -15 -4 -16 6 -5 18 17 34 15 19 -2 -15 -19 -109 -19 -130 -1 -27 24 -63 22
-87 -5 -23 -25 -23 -25 -69 -8 -32 11 -54 14 -70 8 -14 -6 -26 -6 -29 0 -3 5
5 11 17 13 20 4 19 4 -4 6 -16 0 -28 -3 -28 -9 0 -15 -15 -12 -38 8 -14 12
-17 23 -12 33 6 11 4 15 -10 16 -12 1 -17 -3 -14 -12 8 -20 -11 -27 -89 -32
-40 -2 -76 -8 -82 -13 -14 -12 -54 -10 -82 3 -16 7 -26 7 -37 -2 -8 -7 -36
-14 -63 -16 -26 -2 -77 -8 -113 -14 -36 -6 -91 -11 -122 -12 -32 -1 -58 -6
-58 -11 0 -4 -11 -8 -23 -8 -28 0 -57 29 -57 56 0 11 -9 37 -20 59 -11 22 -20
53 -20 70 0 16 -7 39 -15 49 -8 11 -15 32 -15 48 0 15 -5 28 -11 28 -5 0 -7 4
-4 10 3 5 1 19 -6 31 -6 12 -11 38 -11 58 0 20 -5 39 -11 43 -7 4 -1199 8
-2649 8 l-2638 0 0 -1005z m9876 597 c17 -10 70 -134 66 -153 -5 -25 -220
-192 -238 -185 -22 9 -77 132 -70 159 3 12 18 30 33 39 15 9 62 46 103 82 76
66 86 71 106 58z m-1532 -538 c13 -5 14 -9 5 -20 -6 -8 -17 -14 -24 -14 -7 0
-18 -7 -25 -15 -18 -22 -22 -13 -9 23 11 32 23 38 53 26z m-587 -101 c-4 -3 0
-17 8 -30 15 -23 15 -23 -5 -11 -21 14 -28 48 -8 48 6 0 8 -3 5 -7z m1046
-694 c7 -28 -24 -42 -57 -26 -19 11 -22 17 -14 25 7 7 18 12 25 12 7 0 13 4
13 10 0 17 28 -1 33 -21z m-302 -121 c34 -63 9 -110 -58 -112 -36 -1 -37 0
-38 34 -2 52 3 60 36 53 24 -5 29 -2 29 14 0 17 8 33 16 33 2 0 9 -10 15 -22z
m-2608 -10 c4 -10 7 -10 15 0 5 7 16 10 25 6 10 -3 46 -7 81 -8 35 0 70 -7 78
-14 8 -6 39 -14 69 -16 30 -2 54 -5 54 -6 0 -3 77 -11 115 -12 14 0 46 3 72 7
43 6 48 5 63 -19 13 -19 21 -23 30 -16 14 12 25 3 25 -21 0 -21 19 -29 43 -17
22 11 50 -13 41 -37 -5 -13 -2 -15 20 -9 14 3 37 3 50 0 21 -5 24 -11 22 -46
-1 -24 3 -45 11 -52 9 -7 13 -7 13 1 0 17 39 -6 47 -27 4 -9 12 -21 20 -25 7
-4 13 -15 13 -22 0 -8 4 -15 10 -15 5 0 9 -6 7 -12 -1 -7 3 -12 10 -11 6 1 16
-11 22 -27 5 -17 14 -30 19 -30 5 0 16 -15 23 -32 7 -18 26 -45 42 -60 16 -15
26 -32 22 -38 -3 -6 0 -7 9 -4 11 4 16 0 16 -14 0 -12 4 -23 9 -26 5 -3 12
-17 15 -31 4 -14 14 -34 23 -45 23 -27 75 -180 70 -207 -2 -13 2 -28 9 -34 8
-6 12 -15 9 -19 -3 -5 -1 -11 5 -15 9 -6 8 -29 -6 -97 -4 -18 -1 -28 6 -28 7
0 10 -7 6 -16 -3 -9 -3 -21 1 -27 4 -7 8 -18 9 -27 1 -8 5 -37 8 -64 3 -27 10
-75 16 -106 25 -137 11 -564 -21 -622 -14 -26 -11 -88 4 -88 9 0 9 -2 -1 -9
-10 -6 -12 -24 -8 -67 4 -48 0 -70 -20 -119 -41 -96 -63 -165 -67 -200 -2 -18
-11 -45 -20 -59 -9 -14 -17 -30 -17 -36 0 -5 -4 -10 -10 -10 -5 0 -10 -11 -10
-25 0 -14 -3 -25 -7 -25 -5 0 -16 -19 -27 -43 -10 -23 -27 -60 -37 -83 -11
-23 -19 -46 -19 -52 0 -5 -7 -12 -15 -16 -9 -3 -15 -18 -15 -37 0 -25 -3 -29
-13 -20 -16 12 -30 -1 -94 -89 -23 -30 -60 -75 -83 -100 -24 -25 -79 -85 -124
-135 -207 -231 -487 -512 -566 -568 -143 -101 -312 -166 -555 -216 -145 -30
-204 -32 -615 -19 -48 1 -100 -4 -145 -16 -234 -62 -461 -35 -576 69 -34 31
-56 40 -81 36 -5 0 -8 3 -8 9 0 13 -66 80 -79 80 -6 0 -11 9 -11 20 0 13 -5
18 -15 14 -8 -4 -15 -1 -15 7 0 7 -3 10 -6 6 -6 -6 -34 16 -34 27 0 3 -18 24
-41 46 -26 26 -40 47 -37 58 5 18 -13 42 -32 42 -6 0 -8 5 -5 10 4 6 3 24 0
41 -5 22 -11 29 -22 25 -12 -5 -14 -1 -10 14 3 12 -1 24 -11 29 -9 5 -14 13
-10 17 4 4 0 14 -10 23 -10 9 -21 24 -25 34 -3 9 -13 17 -21 17 -7 0 -16 9
-19 21 -3 12 -10 18 -16 14 -7 -4 -11 5 -11 23 0 16 -6 35 -13 41 -14 11 -17
31 -20 119 -2 36 -5 42 -19 38 -10 -2 -21 0 -24 5 -3 5 2 9 10 9 21 0 22 66 1
86 -18 18 -20 34 -4 34 7 0 8 14 4 39 -4 22 -2 48 3 57 6 11 6 27 2 40 -6 15
-5 26 4 33 8 6 12 26 10 46 -1 20 3 41 10 47 7 7 10 23 8 37 -5 23 -3 24 10
13 14 -11 19 -9 37 14 17 21 19 29 9 36 -9 5 -8 8 6 8 12 0 16 -5 12 -15 -3
-8 -1 -15 5 -15 5 0 9 -7 7 -16 -4 -21 32 -45 39 -26 3 6 11 12 19 12 8 0 14
5 14 11 0 7 9 9 21 6 25 -7 77 11 102 34 15 14 25 15 48 7 27 -9 29 -13 27
-58 -2 -39 -5 -47 -15 -38 -10 8 -13 6 -13 -5 0 -8 -3 -17 -7 -20 -5 -2 -3 -2
4 -1 17 4 34 -21 27 -40 -3 -9 -12 -16 -20 -16 -7 0 -16 -11 -20 -25 -3 -14
-10 -25 -15 -25 -5 0 -9 -5 -9 -12 0 -6 3 -9 6 -5 4 3 13 -1 21 -9 11 -10 13
-26 9 -52 -5 -30 -4 -33 5 -19 10 18 11 18 25 0 7 -10 14 -28 14 -40 0 -16 4
-21 16 -16 12 4 14 0 8 -23 -4 -16 -7 -31 -6 -34 0 -48 16 -51 17 -3 0 15 5
28 11 30 7 2 9 -8 6 -27 -2 -17 0 -30 4 -29 5 1 12 0 17 -1 4 -1 12 -4 17 -5
6 -1 12 -4 15 -5 3 -1 11 -3 18 -4 6 0 13 -13 15 -28 2 -16 9 -28 17 -28 7 0
16 -11 19 -25 7 -27 21 -33 29 -11 3 8 15 12 31 9 14 -3 23 -9 20 -14 -3 -5 4
-9 15 -9 12 0 21 -5 21 -11 0 -6 -9 -8 -20 -4 -11 4 -20 2 -20 -4 0 -6 9 -11
21 -11 15 0 19 -5 15 -15 -4 -12 -2 -13 12 -7 9 5 23 7 30 5 6 -3 12 1 12 7 0
7 11 3 28 -8 34 -24 104 -45 112 -33 3 5 29 3 60 -6 30 -8 75 -21 100 -27 80
-22 292 -4 409 34 29 10 65 16 79 14 14 -3 37 0 51 5 30 13 131 21 131 12 0
-4 -4 -11 -8 -16 -5 -6 -6 -21 -1 -35 7 -24 7 -24 8 -2 1 20 3 21 21 10 11 -7
16 -14 10 -16 -5 -2 -10 -12 -10 -22 0 -29 -11 -50 -23 -43 -7 4 -8 0 -3 -12
4 -12 -1 -26 -15 -41 -13 -14 -18 -27 -13 -36 12 -18 12 -47 1 -45 -5 1 -12
-4 -14 -12 -4 -9 0 -11 15 -7 14 5 24 1 31 -11 10 -17 10 -17 11 1 0 15 5 17
30 13 16 -4 32 -2 35 3 3 6 0 10 -7 10 -7 1 5 10 27 21 22 11 56 29 75 40 22
14 52 21 82 21 26 0 46 3 45 7 -1 3 1 6 4 6 4 0 15 8 25 17 11 9 32 20 47 23
32 8 46 36 46 92 1 39 -5 124 -9 133 -1 3 -2 8 -1 13 0 4 -5 7 -12 7 -8 0 -12
15 -11 48 0 41 -9 75 -26 92 -3 3 -10 14 -16 25 -9 16 -8 22 5 32 14 10 14 15
-7 51 -27 48 -28 67 -4 77 14 7 13 9 -8 14 -23 6 -25 13 -28 64 -2 39 -7 55
-14 51 -7 -5 -9 0 -5 16 4 14 -1 32 -15 50 -13 18 -21 47 -23 80 -4 78 -48 96
-84 34 -24 -40 -27 -70 -8 -77 9 -3 9 -10 -2 -31 -10 -17 -20 -25 -30 -21 -12
4 -12 2 2 -9 17 -13 25 -32 9 -22 -4 2 -8 -4 -8 -14 0 -10 4 -16 8 -14 4 3 8
-6 8 -20 0 -14 4 -28 10 -31 5 -3 7 -25 4 -48 -3 -23 -7 -75 -8 -115 -1 -51
-7 -76 -17 -83 -11 -7 -11 -9 0 -9 10 0 10 -6 -4 -26 -9 -14 -14 -28 -11 -31
2 -3 -6 -17 -19 -31 -13 -14 -21 -30 -18 -35 3 -5 -12 -8 -36 -5 -22 2 -41 0
-41 -4 0 -16 -111 18 -175 52 -88 48 -103 57 -120 73 -9 10 -20 15 -24 12 -5
-2 -19 7 -31 20 -13 14 -29 25 -35 25 -6 0 -36 22 -66 50 -32 29 -63 50 -77
50 -13 0 -34 11 -48 25 -13 13 -34 30 -45 36 -28 15 -14 26 43 31 34 4 48 2
52 -8 6 -16 46 -19 46 -4 0 6 4 10 10 10 5 0 7 -7 4 -15 -4 -9 0 -15 10 -15
15 0 21 12 17 34 -1 4 4 14 10 22 7 8 7 14 1 14 -5 0 -12 9 -15 20 -3 11 -12
20 -21 20 -9 0 -17 3 -17 8 -1 4 -3 16 -4 27 -3 23 -14 90 -19 120 -7 38 -19
80 -26 90 -4 6 -11 31 -14 57 -4 26 -11 50 -17 53 -5 4 -7 10 -4 15 7 11 -43
70 -61 70 -7 0 -19 10 -25 23 -6 12 -20 32 -31 44 -11 12 -24 40 -28 61 -7 38
-5 42 47 98 30 33 58 58 64 56 5 -1 9 3 9 9 0 5 5 7 10 4 13 -8 13 8 -2 40 -9
20 -18 26 -35 22 -13 -2 -23 0 -23 5 0 4 -10 2 -23 -7 -13 -8 -27 -12 -30 -9
-4 4 -13 1 -22 -6 -8 -7 -37 -13 -64 -14 -27 0 -47 -4 -45 -8 6 -9 -62 -22
-81 -15 -8 4 -17 1 -21 -5 -4 -6 -22 -8 -45 -4 -21 3 -40 2 -44 -4 -3 -5 -21
-10 -38 -10 -18 0 -50 -6 -71 -14 -34 -12 -46 -12 -80 0 -46 17 -68 33 -60 45
3 5 -1 9 -8 9 -9 1 -7 5 5 14 19 14 23 36 7 36 -5 0 -10 -7 -10 -15 0 -9 -6
-12 -15 -9 -8 4 -12 11 -8 17 4 6 0 8 -10 4 -11 -4 -18 1 -23 15 -4 14 -9 17
-14 8 -5 -8 -9 -8 -13 4 -4 9 -2 16 4 16 6 0 9 7 5 15 -3 8 -1 15 5 15 7 0 8
7 4 18 -4 9 -8 25 -9 35 -2 10 -7 22 -13 25 -6 4 -14 18 -18 30 -6 20 -4 23
12 20 10 -2 17 -10 15 -16 -2 -13 8 -15 23 -4 19 14 17 34 -3 28 -17 -6 -20 1
-26 48 -3 30 -3 62 0 70 7 17 4 19 -20 10 -9 -3 -12 -12 -9 -22 5 -12 2 -11
-13 4 -22 21 -26 43 -11 62 7 8 5 12 -8 12 -13 0 -15 4 -8 13 6 6 9 22 8 35
-1 12 2 22 7 22 4 0 8 -4 8 -10 0 -5 7 -10 15 -10 9 0 15 9 15 24 0 17 -8 26
-32 34 -23 7 -27 10 -13 11 14 1 16 4 8 9 -8 5 -10 21 -6 45 5 32 8 36 28 31
17 -4 25 -1 30 15 3 11 12 18 19 15 7 -3 16 2 20 11 4 12 1 15 -17 13 -19 -3
-22 2 -24 37 -1 36 0 38 12 21 13 -17 14 -17 21 9 5 19 9 23 15 14 5 -9 14 0
27 31 13 29 16 49 10 57 -7 8 -3 10 13 6 18 -5 21 -3 16 10 -4 11 1 18 16 23
12 4 23 2 25 -5 2 -6 12 -11 23 -11 17 0 18 -3 8 -21 -9 -17 -13 -19 -20 -8
-4 7 -12 10 -16 5 -4 -5 -2 -11 6 -14 8 -3 24 -15 36 -28 30 -33 46 -31 39 5
-6 26 -3 30 31 41 25 8 34 15 26 23 -19 19 38 52 95 53 28 0 57 5 64 9 9 6 11
4 5 -4 -5 -9 0 -12 16 -11 63 5 87 -1 120 -32 40 -37 42 -68 3 -68 -31 0 -30
-18 4 -58 57 -67 82 -100 82 -107 0 -4 10 -18 23 -31 12 -12 27 -28 32 -34 6
-6 18 -18 27 -28 10 -9 30 -32 44 -49 14 -18 33 -33 42 -33 10 -1 33 -14 52
-30 19 -17 42 -30 51 -30 10 0 26 -11 37 -25 11 -14 39 -30 67 -37 26 -7 50
-18 52 -25 3 -6 11 -9 18 -7 7 3 16 1 19 -5 4 -6 13 -8 21 -4 11 3 15 -2 15
-18 0 -43 12 -50 69 -43 37 4 51 2 46 -5 -3 -6 0 -18 9 -26 10 -10 17 -12 21
-5 4 6 15 8 26 5 13 -4 19 -2 19 9 0 9 4 16 10 16 5 0 7 6 4 14 -3 7 2 16 10
19 9 4 16 13 16 20 0 15 54 67 69 67 5 0 11 5 13 12 3 8 25 12 67 10 54 -2 62
0 59 15 -2 10 3 18 12 18 10 0 15 10 13 33 -1 40 -31 105 -44 97 -5 -4 -9 3
-9 14 0 14 -6 21 -19 21 -19 0 -31 18 -31 49 0 22 -23 71 -32 71 -5 0 -8 6 -8
13 0 6 -9 23 -19 36 -10 14 -17 31 -14 38 3 7 2 21 -1 30 -6 15 -8 15 -16 3
-8 -13 -10 -12 -10 3 0 9 -11 27 -25 39 -14 12 -25 30 -25 39 0 10 -9 23 -20
29 -11 6 -20 17 -20 26 0 8 -8 18 -17 21 -31 12 -92 92 -108 142 -8 27 -77
101 -95 101 -6 0 -10 6 -7 13 2 6 -6 28 -18 47 -12 19 -25 45 -29 57 -4 11
-13 27 -21 33 -18 15 -20 66 -4 76 8 5 8 9 -1 14 -17 10 3 40 45 67 24 16 35
19 39 10 3 -9 7 -9 14 2 6 8 12 9 16 3 3 -6 16 -8 29 -5 26 7 81 59 73 71 -2
4 7 8 21 7 15 0 28 -6 31 -12 2 -7 10 -13 18 -13 9 0 12 4 9 10 -3 6 1 7 9 4
11 -4 16 0 16 12 0 16 2 17 10 4 9 -13 11 -13 20 0 5 8 10 11 10 7 0 -4 6 -2
14 5 10 9 11 15 2 20 -6 5 0 8 15 8 15 0 32 7 39 15 23 28 102 76 116 71 7 -3
20 2 29 10 11 12 19 13 28 6 9 -8 16 -6 25 9 7 10 19 19 26 19 8 0 17 6 19 13
3 7 6 4 6 -7 1 -13 5 -16 14 -9 6 5 33 8 59 8 26 -1 45 2 42 7 -3 4 3 11 13
14 10 3 26 10 36 15 13 7 19 5 23 -6 9 -23 29 -18 61 15 31 33 39 36 46 18z
m3137 -18 l25 -7 -28 -12 c-46 -18 -71 -12 -60 15 6 15 24 16 63 4z m-3770
-169 c0 -5 -9 -11 -20 -14 -13 -3 -20 0 -20 9 0 8 9 14 20 14 11 0 20 -4 20
-9z m-376 -155 c-6 -15 -34 -23 -34 -10 0 8 34 34 38 30 1 -2 0 -11 -4 -20z
m-4790 -161 c-10 -8 -23 -15 -28 -15 -6 0 -1 7 10 15 10 8 23 15 28 15 6 0 1
-7 -10 -15z m8338 -15 c12 0 57 -50 60 -65 0 -5 2 -14 3 -20 0 -5 8 -26 17
-45 14 -30 26 -70 33 -105 1 -5 3 -14 5 -20 5 -19 7 -30 8 -43 1 -7 6 -11 11
-7 12 7 26 -59 16 -74 -3 -6 1 -11 10 -11 9 0 13 -4 10 -10 -3 -5 1 -10 9 -10
9 0 16 -6 16 -14 0 -8 5 -16 11 -18 6 -2 12 -16 12 -31 1 -15 8 -27 15 -27 6
0 12 -9 12 -20 0 -10 6 -23 13 -27 6 -4 12 -12 13 -18 3 -26 17 -55 28 -55 6
0 4 -5 -4 -11 -11 -8 -12 -12 -2 -16 6 -2 12 -17 12 -33 0 -16 7 -36 16 -45
12 -11 15 -26 11 -51 -5 -27 -2 -34 10 -34 13 0 14 -8 9 -41 l-7 -41 28 33
c15 19 28 36 30 38 2 2 6 1 9 -2 4 -4 -4 -16 -17 -27 -19 -15 -21 -22 -11 -28
15 -10 24 -62 11 -62 -5 0 -9 -7 -9 -16 0 -10 6 -14 14 -11 10 4 12 0 9 -13
-3 -11 4 -31 16 -46 12 -15 21 -21 21 -14 0 7 3 10 6 7 4 -4 1 -13 -6 -21 -9
-12 -26 -14 -69 -10 -31 3 -57 9 -59 14 -2 6 -12 10 -23 10 -10 0 -19 5 -19
10 0 6 -11 15 -25 20 -14 5 -25 16 -25 25 0 10 -10 15 -27 16 -23 0 -24 2 -9
8 15 6 10 10 -25 26 -24 11 -50 25 -57 32 -7 7 -17 13 -22 13 -19 0 -76 46
-72 58 2 7 -1 12 -7 12 -6 0 -9 6 -7 13 1 6 1 9 -1 5 -3 -5 -11 -8 -19 -8 -9
0 -13 -4 -10 -8 3 -5 -1 -9 -9 -9 -14 0 -19 10 -16 30 0 4 -6 7 -15 7 -13 0
-15 8 -10 48 4 26 9 73 13 105 3 31 8 57 12 57 3 0 7 21 9 46 1 25 9 56 17 67
8 12 15 30 15 39 0 12 10 20 29 24 35 7 53 52 27 66 -9 5 -16 15 -16 23 0 19
-31 55 -42 49 -4 -3 -5 8 -2 24 5 25 -5 82 -23 129 -4 10 -2 14 4 10 8 -5 10
11 7 49 -3 54 5 93 14 66 2 -7 8 -12 14 -12z m-61 -72 c-8 -18 -10 -12 -9 32
0 50 1 52 9 23 6 -19 5 -40 0 -55z m-4306 -388 c3 -5 -1 -10 -10 -10 -9 0 -13
5 -10 10 3 6 8 10 10 10 2 0 7 -4 10 -10z m4740 -240 c3 -5 2 -10 -4 -10 -5 0
-13 5 -16 10 -3 6 -2 10 4 10 5 0 13 -4 16 -10z m5 -47 c0 -22 -2 -25 -10 -13
-13 20 -13 40 0 40 6 0 10 -12 10 -27z m-3739 -99 c6 -8 9 -20 6 -28 -6 -15
-57 -28 -57 -15 0 5 5 9 11 9 8 0 8 5 -1 15 -7 8 -19 15 -26 15 -17 0 -18 17
-2 22 20 7 56 -3 69 -18z m-1281 -25 c0 -26 -4 -39 -12 -37 -13 5 -20 36 -12
61 10 31 24 18 24 -24z m1343 -14 c-3 -9 -8 -14 -10 -11 -3 3 -2 9 2 15 9 16
15 13 8 -4z m-1303 -135 c0 -5 -2 -10 -4 -10 -3 0 -8 5 -11 10 -3 6 -1 10 4
10 6 0 11 -4 11 -10z m0 -100 c0 -5 -5 -10 -11 -10 -5 0 -7 5 -4 10 3 6 8 10
11 10 2 0 4 -4 4 -10z m55 -210 c3 -5 1 -10 -4 -10 -6 0 -11 5 -11 10 0 6 2
10 4 10 3 0 8 -4 11 -10z m-405 -54 c0 -9 -4 -16 -9 -16 -5 0 -12 -8 -15 -17
-3 -10 -4 -3 -2 15 1 18 -2 36 -7 39 -6 4 -7 1 -2 -7 5 -9 4 -11 -4 -6 -9 6
-9 11 0 22 9 11 13 11 25 -1 8 -7 14 -21 14 -29z m-53 -18 c-3 -8 -6 -5 -6 6
-1 11 2 17 5 13 3 -3 4 -12 1 -19z m33 -57 c3 -2 -2 -2 -10 1 -10 4 -16 0 -16
-12 0 -11 6 -15 18 -12 12 3 18 -1 18 -12 0 -10 -5 -13 -16 -9 -10 4 -22 -1
-30 -11 -12 -17 -13 -16 -23 3 -15 27 -14 34 5 27 12 -4 15 -2 10 9 -3 8 -3
22 0 30 6 15 15 12 44 -14z m670 19 c0 -5 -2 -10 -4 -10 -3 0 -8 5 -11 10 -3
6 -1 10 4 10 6 0 11 -4 11 -10z m-690 -105 c-7 -9 -15 -13 -18 -10 -3 2 1 11
8 20 7 9 15 13 18 10 3 -2 -1 -11 -8 -20z m364 -111 c4 -14 4 -29 1 -34 -4 -6
-1 -10 4 -10 6 0 11 -9 11 -20 0 -11 -4 -20 -10 -20 -5 0 -10 5 -10 12 0 9 -3
9 -12 0 -8 -8 -8 -15 0 -24 8 -11 6 -17 -9 -26 -11 -7 -17 -17 -14 -22 4 -6
-1 -17 -9 -25 -8 -9 -18 -30 -21 -48 -8 -39 -42 -67 -56 -45 -7 10 -9 10 -9 1
0 -7 -4 -13 -10 -13 -5 0 -10 7 -10 15 0 8 -6 12 -13 9 -10 -4 -12 3 -9 26 3
19 0 30 -7 30 -7 0 -10 -4 -7 -9 10 -16 -23 -20 -39 -5 -8 8 -19 12 -25 9 -5
-3 -10 1 -10 10 0 11 -5 15 -15 11 -8 -3 -15 -1 -15 3 0 14 59 61 76 61 8 0
14 9 13 23 -1 16 -3 17 -6 5 -2 -10 -10 -15 -19 -11 -8 3 -14 0 -14 -6 0 -20
-39 -12 -51 10 -10 20 -9 21 10 16 15 -4 21 -1 21 12 0 10 11 28 26 42 18 17
23 19 18 6 -4 -11 -1 -17 8 -17 9 0 13 -13 13 -46 0 -25 3 -48 8 -51 4 -2 7
-14 8 -26 0 -15 2 -17 6 -7 3 8 14 25 25 37 11 12 17 26 13 32 -3 6 1 14 9 17
9 3 16 15 16 25 0 10 4 19 10 19 5 0 7 7 4 15 -4 8 -1 15 5 15 6 0 11 7 11 15
0 8 7 15 15 15 8 0 15 -4 15 -10 0 -5 10 -9 23 -9 16 1 18 2 5 6 -10 2 -18 8
-18 13 0 19 39 -4 44 -26z m566 29 c0 -5 -7 -17 -15 -27 -8 -10 -12 -23 -9
-27 3 -5 0 -9 -5 -9 -6 0 -11 9 -11 20 0 11 5 20 10 20 6 0 9 3 9 8 -3 14 1
22 11 22 6 0 10 -3 10 -7z m40 -3 c0 -5 -7 -10 -15 -10 -8 0 -15 5 -15 10 0 6
7 10 15 10 8 0 15 -4 15 -10z m10 -34 c0 -3 -4 -8 -10 -11 -5 -3 -10 -1 -10 4
0 6 5 11 10 11 6 0 10 -2 10 -4z m-124 -42 c1 -13 -2 -24 -7 -24 -5 0 -9 7 -9
15 0 7 -7 18 -17 23 -13 8 -12 9 8 9 18 0 24 -5 25 -23z m84 16 c0 -5 -4 -10
-10 -10 -5 0 -10 5 -10 10 0 6 5 10 10 10 6 0 10 -4 10 -10z m-850 -10 c0 -5
-8 -10 -17 -10 -15 0 -16 2 -3 10 19 12 20 12 20 0z m833 -24 c9 -7 17 -18 17
-23 0 -14 -51 -24 -79 -16 -33 9 -4 25 32 17 16 -3 27 -1 27 5 0 6 -9 11 -21
11 -11 0 -17 5 -14 10 8 13 16 12 38 -4z m-6 -68 c-5 -17 -49 -17 -55 0 -2 8
7 12 28 12 21 0 30 -4 27 -12z m-700 -184 c-3 -3 -12 -4 -19 -1 -8 3 -5 6 6 6
11 1 17 -2 13 -5z m-17 -66 c0 -5 -4 -8 -10 -8 -5 0 -10 10 -10 23 0 18 2 19
10 7 5 -8 10 -18 10 -22z m819 -220 c31 -20 33 -24 27 -65 -3 -23 -4 -43 -1
-43 2 0 19 9 36 19 l32 19 74 -36 c66 -33 74 -40 70 -61 -4 -22 -2 -23 32 -17
47 7 95 -6 99 -28 2 -10 -15 -36 -42 -63 -43 -42 -48 -45 -83 -38 -21 3 -45
15 -53 25 -10 13 -20 17 -29 11 -14 -9 -70 2 -80 16 -3 5 -26 21 -49 37 -37
26 -43 34 -40 58 4 28 -5 37 -17 18 -3 -5 -10 -10 -14 -10 -9 0 -61 78 -61 92
0 6 -6 5 -15 -2 -13 -11 -15 -8 -15 14 0 14 -4 26 -10 26 -5 0 -8 10 -6 23 2
12 9 21 15 20 6 -2 11 3 11 11 0 20 41 25 65 9 11 -8 35 -23 54 -35z m-224
-28 c8 -16 15 -32 15 -36 0 -14 -38 28 -43 47 -8 29 11 23 28 -11z m706 -220
c27 -15 24 -24 -21 -49 -48 -27 -100 -35 -100 -16 0 7 -3 20 -6 29 -4 10 -1
16 9 16 8 0 20 7 27 15 14 17 62 20 91 5z m84 -55 c0 -5 -9 -11 -21 -13 -13
-2 -21 3 -21 13 0 10 8 15 21 13 12 -2 21 -7 21 -13z m-500 -25 c3 -5 1 -10
-4 -10 -6 0 -11 5 -11 10 0 6 2 10 4 10 3 0 8 -4 11 -10z m2027 -568 c-11 -28
-41 -83 -68 -123 -50 -75 -169 -209 -186 -209 -5 0 7 17 27 38 60 64 121 151
182 260 60 107 78 121 45 34z m-3723 -111 c12 -8 12 -12 -2 -25 -15 -15 -17
-15 -26 2 -15 28 0 40 28 23z m-69 -11 c0 -6 7 -10 16 -10 8 0 13 -4 9 -9 -3
-5 -1 -12 5 -16 6 -4 8 -10 6 -14 -3 -4 -1 -13 5 -21 7 -13 9 -13 9 0 0 9 9
16 20 16 26 0 25 -2 -7 -31 -24 -21 -25 -24 -9 -25 15 0 17 -6 14 -30 -3 -19
-1 -29 6 -27 14 5 36 -18 36 -37 0 -9 7 -16 16 -16 13 0 9 -7 -12 -27 -18 -17
-24 -28 -16 -31 6 -2 12 -15 12 -28 0 -15 6 -24 16 -24 13 0 14 -3 5 -14 -10
-12 -7 -14 20 -11 l33 5 -25 -18 c-13 -9 -26 -16 -29 -15 -12 3 -40 -19 -34
-28 3 -5 -1 -21 -10 -34 -9 -13 -16 -33 -16 -45 0 -11 -7 -20 -15 -20 -8 0
-15 -5 -15 -10 0 -6 -4 -9 -9 -8 -14 4 -13 -10 4 -42 13 -25 13 -31 2 -35 -18
-8 -15 -49 6 -72 19 -21 23 -38 7 -28 -6 4 -10 3 -9 -2 3 -20 -2 -34 -11 -28
-5 3 -10 1 -10 -4 0 -6 4 -11 9 -11 5 0 13 -9 16 -21 5 -15 10 -18 18 -10 16
16 54 13 61 -4 10 -27 -23 -85 -56 -98 -14 -5 -18 -17 -16 -49 l1 -43 4 42 c3
34 8 42 29 47 34 9 44 0 44 -36 0 -23 -4 -29 -15 -24 -10 3 -15 -1 -15 -13 0
-10 -6 -24 -14 -30 -11 -9 -18 -6 -34 14 -12 14 -18 34 -15 45 8 30 -4 55 -20
41 -16 -13 -63 -17 -97 -8 -25 7 -25 7 -2 -5 13 -6 21 -17 18 -25 -6 -15 10
-18 19 -3 3 6 11 10 17 10 7 0 5 -7 -3 -17 -17 -21 -26 -78 -11 -69 6 3 13 2
16 -3 3 -5 -1 -12 -10 -15 -10 -4 -13 -13 -9 -27 5 -14 3 -19 -4 -15 -6 4 -19
2 -30 -3 -14 -8 -20 -7 -25 4 -3 9 0 15 9 15 8 0 15 4 15 8 0 5 -10 8 -22 7
-16 -1 -26 -11 -32 -31 -17 -57 -29 -74 -52 -74 -17 0 -24 -7 -29 -32 -12 -57
-65 -99 -79 -63 -7 18 -26 20 -26 2 0 -7 -9 -18 -20 -25 -17 -10 -20 -10 -20
5 0 15 -2 16 -10 3 -7 -11 -12 -12 -18 -3 -4 6 -20 15 -35 18 -15 4 -27 11
-27 16 0 5 -7 9 -15 9 -12 0 -14 12 -12 54 2 45 -1 56 -15 60 -10 2 -18 9 -18
16 0 6 5 8 10 5 6 -3 10 -1 10 4 0 6 -4 11 -8 11 -4 0 -8 8 -8 19 0 10 5 17
12 14 6 -2 14 3 17 11 4 11 1 13 -10 9 -11 -4 -14 -2 -9 5 16 26 -3 10 -29
-24 -21 -27 -24 -38 -15 -44 20 -12 15 -59 -9 -79 -24 -21 -28 -61 -6 -61 21
0 19 -47 -2 -59 -14 -8 -18 -23 -18 -78 0 -57 -3 -68 -18 -71 -16 -3 -18 3
-17 55 2 32 -3 71 -9 86 -16 41 -14 64 8 79 11 8 23 26 26 40 4 16 12 25 20
22 7 -3 15 1 18 9 6 17 -2 57 -12 57 -9 0 -7 129 3 158 5 14 13 21 21 18 9 -3
15 8 19 32 6 34 11 49 31 107 4 11 9 35 11 54 2 18 11 45 21 60 9 14 16 31 15
38 -1 6 2 14 8 18 5 3 10 17 10 29 0 13 6 29 14 36 8 6 13 17 10 24 -3 7 4 21
16 31 18 17 21 17 38 2 28 -25 44 -7 20 23 -14 16 -22 21 -25 13 -5 -15 -33
-18 -33 -4 0 5 6 14 14 21 8 6 13 17 10 24 -3 7 4 20 14 29 17 16 20 16 32 2
11 -13 10 -15 -1 -10 -8 2 -21 1 -29 -5 -13 -8 -12 -11 5 -24 11 -8 21 -10 23
-5 2 5 12 4 24 -2 18 -9 18 -8 9 10 -14 26 -14 28 5 35 11 4 15 2 11 -8 -4
-10 -1 -13 9 -9 7 3 14 11 14 18 0 7 3 15 8 18 4 2 1 2 -6 0 -9 -2 -11 3 -7
17 4 12 2 20 -6 20 -9 0 -8 4 1 15 10 12 10 18 0 30 -10 12 -10 15 3 15 21 0
27 22 10 39 -20 20 -40 -2 -47 -53 -4 -21 -16 -47 -28 -57 -28 -25 -32 -24
-12 6 8 13 13 28 10 33 -3 6 1 15 10 22 8 7 13 19 10 26 -3 7 2 18 10 24 8 7
14 19 14 27 0 12 3 12 16 -1 21 -22 33 -20 27 4 -4 14 -1 20 8 18 10 -2 15 9
17 35 3 36 2 37 -17 25 -12 -7 -19 -18 -17 -24 2 -6 0 -17 -5 -25 -6 -10 -9
-7 -9 11 1 24 22 62 34 61 17 -2 23 1 50 24 16 14 32 22 35 19 3 -3 -2 -10
-12 -15 -9 -6 -17 -19 -17 -31 0 -21 0 -21 18 -1 9 11 32 28 50 37 18 9 35 23
38 29 5 15 54 21 54 7z m343 -470 c-3 -10 -11 -25 -19 -31 -8 -6 -14 -18 -14
-25 0 -8 -9 -22 -20 -31 -11 -10 -20 -23 -20 -30 0 -18 -19 -16 -26 2 -5 12
-14 10 -53 -12 -78 -44 -78 -45 -6 -77 36 -15 65 -34 65 -41 0 -7 -18 -15 -42
-19 -24 -3 -67 -10 -95 -14 -47 -7 -53 -6 -53 9 0 13 11 19 47 25 43 6 45 8
27 21 -10 7 -35 16 -56 19 -31 5 -35 9 -26 23 5 9 28 25 49 35 53 26 57 36 17
37 -65 2 -73 4 -73 19 0 16 7 16 137 9 38 -2 68 -7 68 -11 0 -5 5 -8 10 -8 6
0 10 7 10 14 0 18 58 106 70 106 4 0 6 -9 3 -20z m-961 -29 c-24 -20 -31 -41
-7 -21 8 7 21 10 29 7 8 -3 16 2 19 15 8 30 41 19 48 -17 7 -31 9 -30 18 11 0
3 6 2 11 -1 8 -5 7 -11 0 -20 -8 -10 -8 -19 0 -36 12 -21 12 -21 -11 -5 -26
18 -39 20 -39 7 0 -5 9 -11 20 -14 11 -3 20 -14 21 -26 1 -12 1 -31 2 -43 1
-32 -24 -96 -40 -102 -7 -3 -13 -1 -13 4 0 6 -5 10 -11 10 -6 0 -9 -7 -5 -15
3 -9 0 -15 -9 -15 -18 0 -20 -16 -2 -24 9 -4 9 -7 0 -12 -8 -4 -8 -12 2 -32
17 -32 9 -44 -12 -17 -12 16 -14 16 -10 3 7 -21 -13 -62 -33 -66 -8 -2 -20
-10 -27 -18 -12 -17 -62 -16 -76 1 -6 7 -10 6 -13 -1 -3 -6 -25 8 -52 32 -25
24 -43 46 -39 50 4 4 2 13 -4 20 -7 9 -4 18 12 33 20 18 20 21 5 21 -9 0 -14
5 -11 10 3 6 2 10 -3 10 -6 0 -8 9 -5 20 3 11 12 20 19 20 8 0 14 9 14 19 0
11 5 23 10 26 6 4 8 10 5 15 -3 4 2 13 10 20 8 7 15 21 15 32 0 10 5 16 10 13
6 -3 10 -2 10 4 0 11 61 71 73 71 4 0 12 -11 17 -25 12 -32 24 -33 16 -1 -5
19 0 29 16 40 31 22 46 20 20 -3z m821 -350 c9 -12 5 -11 -17 3 -20 13 -31 15
-39 7 -17 -17 -26 -13 -20 9 3 11 14 20 24 20 11 0 19 6 20 13 0 6 5 1 10 -12
5 -14 15 -32 22 -40z m-843 -81 c0 -5 -4 -10 -10 -10 -5 0 -10 5 -10 10 0 6 5
10 10 10 6 0 10 -4 10 -10z m57 -182 c-3 -8 -6 -5 -6 6 -1 11 2 17 5 13 3 -3
4 -12 1 -19z m405 -53 c0 -5 -5 -11 -11 -13 -6 -2 -11 4 -11 13 0 9 5 15 11
13 6 -2 11 -8 11 -13z m-358 -317 c9 -36 7 -48 -8 -48 -7 0 -25 -9 -38 -20
-14 -10 -28 -16 -32 -13 -12 12 -6 23 15 23 14 0 18 4 12 13 -12 19 -13 40 -1
54 17 20 45 15 52 -9z m230 9 c-10 -27 -204 -72 -204 -47 0 8 9 11 25 8 14 -3
28 -1 31 3 3 5 18 9 35 9 18 0 28 5 27 13 -2 8 10 12 35 11 20 0 37 3 37 8 0
4 4 8 10 8 5 0 7 -6 4 -13z m-561 -109 c-5 -22 -5 -22 9 -4 22 28 41 11 33
-30 -3 -21 -2 -34 5 -34 5 0 10 5 10 10 0 6 7 10 15 10 8 0 15 -5 15 -10 0 -6
11 -15 25 -20 14 -5 25 -14 25 -20 0 -7 8 -9 22 -5 17 6 20 4 15 -9 -4 -9 -2
-16 3 -16 6 0 10 -7 10 -15 0 -8 5 -15 11 -15 6 0 9 -7 5 -15 -3 -9 4 -25 15
-36 11 -11 18 -27 15 -35 -3 -7 -2 -13 2 -11 7 2 52 -39 52 -48 0 -3 -7 -5
-15 -5 -9 0 -15 -10 -15 -26 0 -30 -35 -63 -67 -64 -14 0 -23 -6 -23 -16 0
-11 -6 -13 -19 -9 -11 3 -22 2 -25 -3 -3 -5 -24 -9 -47 -10 -23 -1 -71 -11
-106 -22 -80 -25 -80 -25 -88 0 -3 11 -14 20 -23 20 -13 0 -13 -2 4 -15 10 -8
17 -15 14 -15 -36 -8 -43 -7 -47 11 -4 12 -14 19 -30 19 -19 0 -24 4 -21 22 2
13 12 24 26 28 22 5 21 6 -8 18 -18 8 -27 18 -23 25 5 8 8 8 11 -1 2 -7 8 -10
12 -7 5 3 7 12 4 20 -4 8 -10 12 -15 9 -12 -7 -11 9 2 43 6 15 11 47 10 71 -2
49 15 112 30 112 6 0 7 -9 4 -20 -7 -23 13 -28 21 -5 4 8 11 15 17 15 6 0 1
-10 -11 -23 -23 -24 -29 -47 -13 -47 5 0 11 5 13 11 2 7 16 13 31 15 l28 3
-23 -18 -22 -18 29 -16 c29 -14 30 -14 46 13 11 17 29 30 49 34 27 5 30 9 21
20 -9 10 -20 12 -41 6 -24 -7 -30 -5 -35 11 -4 10 -12 18 -18 16 -7 -1 -10 5
-8 13 2 8 6 33 9 55 5 45 15 55 54 55 22 0 25 -3 21 -22z m-83 0 c0 -19 -18
-43 -25 -36 -4 3 -2 16 5 27 12 24 20 27 20 9z m290 -25 c-1 -20 -39 -53 -55
-47 -14 6 -13 10 12 30 29 24 43 30 43 17z m-440 -210 c0 -20 -3 -24 -11 -16
-7 7 -9 19 -6 27 10 24 17 19 17 -11z m290 -233 c-20 -13 -33 -13 -25 0 3 6
14 10 23 10 15 0 15 -2 2 -10z m-925 -1648 c0 -17 25 -32 42 -25 7 3 13 0 13
-7 0 -7 7 -10 15 -6 8 3 15 1 15 -4 0 -6 -9 -10 -20 -10 -11 0 -20 4 -20 8 0
4 -15 6 -34 4 -23 -3 -33 -8 -30 -17 3 -7 1 -16 -5 -20 -7 -4 -11 5 -11 22 0
16 -6 35 -12 41 -10 10 -10 15 2 22 20 13 45 8 45 -8z m164 -51 c11 -7 10 -11
-5 -21 -16 -10 -16 -11 -1 -6 9 3 17 1 17 -4 0 -6 -4 -11 -10 -11 -5 -1 -14
-2 -19 -3 -21 -3 -22 -16 -1 -16 18 0 20 -3 11 -14 -10 -11 -8 -17 6 -25 11
-6 13 -11 5 -11 -9 0 -11 -7 -7 -20 4 -11 2 -20 -4 -20 -6 0 -11 12 -12 28 l0
27 -10 -24 c-5 -13 -12 -22 -14 -19 -3 3 -1 18 5 34 8 20 8 30 1 32 -6 2 -11
15 -11 28 0 13 -4 24 -10 24 -5 0 -7 7 -4 15 7 16 41 20 63 6z m132 -74 c-13
-13 -26 -3 -16 12 3 6 11 8 17 5 6 -4 6 -10 -1 -17z m232 -66 c4 -4 1 -16 -8
-25 -15 -14 -18 -14 -41 11 -13 14 -24 28 -24 31 0 7 63 -7 73 -17z m114 -47
c7 -7 13 -15 13 -18 0 -12 -28 -5 -40 9 -7 8 -21 15 -32 15 -10 0 -17 4 -14 9
7 11 57 1 73 -15z m-227 -14 c0 -5 -2 -10 -4 -10 -3 0 -8 5 -11 10 -3 6 -1 10
4 10 6 0 11 -4 11 -10z m210 -17 c2 -2 -2 -8 -9 -12 -21 -13 -3 -31 32 -32 18
0 25 -3 17 -6 -34 -13 -65 -63 -39 -63 5 0 8 -4 5 -9 -4 -5 -1 -11 6 -13 7 -3
9 -11 3 -24 -4 -10 -7 -27 -6 -36 1 -10 -2 -18 -7 -18 -13 0 -21 35 -12 50 12
19 1 39 -18 33 -10 -3 -13 -1 -7 4 9 7 12 35 7 71 -1 6 -7 12 -13 12 -8 0 -8
-5 1 -15 10 -12 10 -15 -4 -15 -10 0 -16 9 -16 25 0 17 6 25 17 25 13 0 14 3
5 12 -19 19 -14 30 11 22 12 -3 24 -8 27 -11z m-230 -3 c0 -5 -4 -10 -10 -10
-5 0 -10 5 -10 10 0 6 5 10 10 10 6 0 10 -4 10 -10z m270 -20 c0 -5 -5 -10
-11 -10 -5 0 -7 5 -4 10 3 6 8 10 11 10 2 0 4 -4 4 -10z m-283 -6 c-3 -3 -12
-4 -19 -1 -8 3 -5 6 6 6 11 1 17 -2 13 -5z m46 -54 c3 -11 1 -20 -4 -20 -5 0
-9 9 -9 20 0 11 2 20 4 20 2 0 6 -9 9 -20z"/>
<path d="M5166 7857 c3 -10 9 -15 12 -12 3 3 0 11 -7 18 -10 9 -11 8 -5 -6z"/>
<path d="M6737 7853 c-10 -9 -9 -23 1 -23 5 0 9 7 9 15 0 17 -1 18 -10 8z"/>
<path d="M4110 7074 c0 -8 5 -12 10 -9 6 3 10 10 10 16 0 5 -4 9 -10 9 -5 0
-10 -7 -10 -16z"/>
<path d="M4020 7059 c0 -5 5 -7 10 -4 6 3 10 8 10 11 0 2 -4 4 -10 4 -5 0 -10
-5 -10 -11z"/>
<path d="M3845 6840 c-3 -5 -1 -10 4 -10 6 0 11 5 11 10 0 6 -2 10 -4 10 -3 0
-8 -4 -11 -10z"/>
<path d="M5890 6603 c-19 -3 -43 -12 -52 -20 -10 -9 -18 -13 -18 -9 0 4 -7 1
-15 -8 -9 -8 -15 -19 -14 -23 4 -23 -4 -32 -31 -38 -16 -4 -30 -11 -30 -16 0
-6 4 -8 9 -5 17 11 37 -4 36 -27 0 -30 -13 -47 -34 -47 -25 0 -52 -32 -42 -49
5 -7 19 -18 32 -25 17 -8 23 -19 21 -34 -2 -15 2 -22 13 -22 28 0 6 -19 -30
-26 -28 -5 -35 -11 -35 -29 0 -13 6 -26 13 -28 7 -3 5 -6 -5 -6 -18 -1 -26
-21 -9 -21 5 0 7 -9 4 -20 -3 -13 1 -22 12 -26 12 -5 13 -9 4 -14 -9 -6 -8
-13 6 -26 10 -10 24 -34 32 -54 8 -19 24 -43 34 -53 10 -10 19 -27 19 -37 0
-22 26 -28 32 -8 5 13 32 -27 33 -47 0 -5 9 -9 20 -7 12 1 37 -12 60 -32 21
-19 41 -35 44 -34 21 2 30 -4 24 -18 -4 -11 0 -15 13 -14 33 4 44 0 39 -12 -5
-14 62 -65 71 -55 3 3 17 1 31 -4 14 -5 34 -7 44 -4 16 5 13 13 -24 60 -23 30
-52 57 -64 61 -19 5 -21 9 -12 25 13 25 31 24 61 -4 19 -18 34 -23 57 -19 25
3 32 0 43 -23 8 -18 17 -25 30 -22 10 3 21 1 24 -4 3 -5 18 -9 35 -9 22 0 29
-5 29 -20 0 -12 9 -22 24 -26 14 -3 27 -12 30 -20 6 -16 33 -19 38 -4 2 6 14
7 34 1 l31 -9 2 57 c3 90 3 95 -16 141 -6 14 -9 37 -7 53 2 15 -2 27 -8 27 -5
0 -7 7 -4 15 4 11 -3 19 -19 25 -14 5 -25 16 -25 23 0 8 -16 29 -35 48 -19 19
-35 40 -35 47 0 6 -4 12 -10 12 -5 0 -7 6 -4 14 3 9 -3 17 -15 21 -24 7 -27
21 -8 28 10 4 10 6 0 6 -7 1 -13 5 -13 11 0 13 92 -35 115 -60 10 -11 26 -20
35 -20 54 0 144 -61 187 -126 8 -13 19 -21 24 -18 5 3 9 0 9 -6 0 -7 8 -23 19
-36 15 -19 21 -21 30 -10 17 20 16 89 -1 116 -9 14 -18 37 -22 53 -4 15 -11
27 -16 27 -6 0 -10 5 -10 11 0 6 -12 24 -27 40 -16 16 -30 41 -33 56 -4 20
-11 27 -24 25 -13 -3 -17 1 -13 11 6 15 -43 67 -63 67 -5 0 -10 5 -10 11 0 5
-4 7 -10 4 -5 -3 -10 0 -10 7 0 10 -2 10 -9 -1 -9 -14 -51 -7 -51 10 0 5 -11
9 -25 9 -14 0 -37 11 -50 24 -13 14 -40 30 -60 37 -19 7 -35 17 -35 22 0 5 -7
6 -15 3 -9 -3 -18 1 -21 9 -4 9 -19 15 -39 15 -19 0 -36 4 -39 8 -3 5 -18 9
-33 10 -39 1 -82 19 -89 37 -4 10 -20 15 -53 15 -35 0 -49 5 -59 20 -7 11 -18
19 -25 18 -6 0 -28 -3 -47 -5z m60 -13 c0 -5 -4 -10 -10 -10 -5 0 -10 5 -10
10 0 6 5 10 10 10 6 0 10 -4 10 -10z m-160 -399 c0 -11 6 -21 13 -24 6 -2 0
-4 -15 -3 -27 1 -38 23 -21 39 12 13 23 7 23 -12z m490 -241 c11 -7 7 -10 -17
-10 -18 0 -33 5 -33 10 0 13 30 13 50 0z"/>
<path d="M5173 6453 c-7 -2 -13 -13 -13 -24 0 -18 1 -18 20 -2 30 26 26 40 -7
26z"/>
<path d="M5132 6410 c0 -14 2 -19 5 -12 2 6 2 18 0 25 -3 6 -5 1 -5 -13z"/>
<path d="M5125 6370 c-4 -6 -11 -7 -17 -4 -7 5 -9 1 -5 -9 3 -8 -1 -21 -9 -27
-21 -18 -18 -50 5 -50 12 0 23 11 30 32 6 17 9 33 6 36 -3 3 0 11 6 19 8 9 8
13 1 13 -6 0 -14 -5 -17 -10z"/>
<path d="M3910 6319 c0 -5 9 -9 20 -9 11 0 20 2 20 4 0 2 -9 6 -20 9 -11 3
-20 1 -20 -4z"/>
<path d="M4707 6265 c-17 -12 -16 -15 8 -39 14 -14 33 -26 41 -26 8 0 12 -4 9
-10 -3 -6 4 -10 17 -10 13 0 30 -6 37 -12 11 -11 11 -9 1 11 -6 13 -21 26 -31
28 -10 3 -19 14 -19 25 0 10 -4 16 -10 13 -5 -3 -10 0 -10 8 0 21 -23 27 -43
12z"/>
<path d="M3881 5384 c0 -11 3 -14 6 -6 3 7 2 16 -1 19 -3 4 -6 -2 -5 -13z"/>
<path d="M8611 7174 c0 -11 3 -14 6 -6 3 7 2 16 -1 19 -3 4 -6 -2 -5 -13z"/>
<path d="M8572 7130 c0 -14 2 -19 5 -12 2 6 2 18 0 25 -3 6 -5 1 -5 -13z"/>
<path d="M8724 6838 c3 -13 6 -29 6 -36 0 -7 5 -10 11 -7 5 4 8 12 6 18 -2 7
0 20 5 30 7 14 4 17 -13 17 -17 0 -20 -4 -15 -22z"/>
<path d="M8456 6833 c-6 -14 -5 -15 5 -6 7 7 10 15 7 18 -3 3 -9 -2 -12 -12z"/>
<path d="M8755 6760 c-3 -5 -1 -10 4 -10 6 0 11 5 11 10 0 6 -2 10 -4 10 -3 0
-8 -4 -11 -10z"/>
<path d="M8792 6714 c-14 -16 -5 -18 17 -5 7 5 9 11 5 14 -5 3 -15 -1 -22 -9z"/>
<path d="M8785 6610 c-3 -5 1 -10 10 -10 9 0 13 5 10 10 -3 6 -8 10 -10 10 -2
0 -7 -4 -10 -10z"/>
<path d="M3568 5806 c-15 -21 -16 -25 -2 -36 18 -16 20 -14 29 28 8 38 -3 41
-27 8z"/>
<path d="M3650 5734 c0 -8 5 -12 10 -9 6 4 8 11 5 16 -9 14 -15 11 -15 -7z"/>
<path d="M2581 4254 c0 -11 3 -14 6 -6 3 7 2 16 -1 19 -3 4 -6 -2 -5 -13z"/>
<path d="M2766 4171 c-3 -5 1 -11 9 -14 9 -4 12 -1 8 9 -6 16 -10 17 -17 5z"/>
<path d="M2755 4140 c-3 -5 -1 -10 4 -10 6 0 11 5 11 10 0 6 -2 10 -4 10 -3 0
-8 -4 -11 -10z"/>
<path d="M2570 4123 c0 -10 5 -25 10 -33 7 -11 10 -7 10 18 0 17 -4 32 -10 32
-5 0 -10 -8 -10 -17z"/>
<path d="M2800 4130 c0 -5 5 -10 10 -10 6 0 10 5 10 10 0 6 -4 10 -10 10 -5 0
-10 -4 -10 -10z"/>
<path d="M2838 4105 c2 -14 6 -25 7 -25 1 0 5 11 7 25 3 16 1 25 -7 25 -8 0
-10 -9 -7 -25z"/>
<path d="M2725 4100 c3 -5 8 -10 11 -10 2 0 4 5 4 10 0 6 -5 10 -11 10 -5 0
-7 -4 -4 -10z"/>
<path d="M2800 4100 c0 -5 5 -10 10 -10 6 0 10 5 10 10 0 6 -4 10 -10 10 -5 0
-10 -4 -10 -10z"/>
<path d="M2841 4014 c0 -11 3 -14 6 -6 3 7 2 16 -1 19 -3 4 -6 -2 -5 -13z"/>
<path d="M2387 3853 c-3 -5 -1 -17 4 -28 4 -11 8 -15 8 -8 1 6 4 18 7 27 6 16
-11 23 -19 9z"/>
<path d="M2850 3530 c0 -5 5 -10 11 -10 5 0 7 5 4 10 -3 6 -8 10 -11 10 -2 0
-4 -4 -4 -10z"/>
<path d="M2860 3429 c0 -5 5 -7 10 -4 6 3 10 8 10 11 0 2 -4 4 -10 4 -5 0 -10
-5 -10 -11z"/>
<path d="M2831 3404 c0 -11 3 -14 6 -6 3 7 2 16 -1 19 -3 4 -6 -2 -5 -13z"/>
<path d="M2220 3375 c0 -28 12 -32 30 -10 14 16 6 35 -16 35 -8 0 -14 -10 -14
-25z"/>
<path d="M2677 3353 c-4 -3 -7 -13 -7 -21 0 -12 3 -12 15 -2 8 7 15 16 15 21
0 11 -14 12 -23 2z"/>
<path d="M2631 3334 c0 -11 3 -14 6 -6 3 7 2 16 -1 19 -3 4 -6 -2 -5 -13z"/>
<path d="M2150 3096 c0 -32 12 -39 36 -22 15 12 16 16 5 30 -20 24 -41 20 -41
-8z"/>
<path d="M2202 3815 c0 -16 2 -22 5 -12 2 9 2 23 0 30 -3 6 -5 -1 -5 -18z"/>
<path d="M2063 3769 c-2 -19 11 -26 21 -10 3 5 0 14 -7 19 -10 8 -13 6 -14 -9z"/>
<path d="M2020 3710 c0 -5 5 -10 11 -10 5 0 7 5 4 10 -3 6 -8 10 -11 10 -2 0
-4 -4 -4 -10z"/>
<path d="M1836 2681 c-4 -7 -5 -15 -2 -18 9 -9 19 4 14 18 -4 11 -6 11 -12 0z"/>
<path d="M1937 2631 c-4 -17 -3 -21 5 -13 5 5 8 16 6 23 -3 8 -7 3 -11 -10z"/>
<path d="M1993 2571 c-4 -17 -8 -19 -20 -10 -11 10 -15 8 -20 -10 -7 -26 -28
-22 -27 6 0 15 -6 20 -27 21 -38 1 -56 -31 -51 -89 4 -44 5 -46 35 -47 81 -2
101 -7 92 -22 -5 -8 -11 -7 -22 1 -8 8 -5 -3 7 -24 21 -35 60 -52 60 -26 0 16
24 36 38 31 17 -5 15 8 -4 29 -14 15 -15 26 -6 59 5 22 6 40 1 40 -5 0 -9 -4
-9 -10 0 -5 -3 -10 -7 -10 -5 0 -8 16 -8 37 0 40 -23 58 -32 24z m-83 -75 c0
-3 -4 -8 -10 -11 -5 -3 -10 -1 -10 4 0 6 5 11 10 11 6 0 10 -2 10 -4z"/>
<path d="M1780 2488 l-1 -33 -14 25 c-14 26 -17 24 -29 -32 -3 -14 -9 -33 -12
-42 -4 -10 -1 -16 9 -16 8 0 17 7 21 15 3 8 12 15 20 15 18 0 43 45 42 75 -1
11 -9 21 -18 23 -14 3 -18 -4 -18 -30z"/>
<path d="M2066 2481 c-4 -5 -2 -12 3 -15 5 -4 12 -2 15 3 4 5 2 12 -3 15 -5 4
-12 2 -15 -3z"/>
<path d="M1700 2438 c0 -19 2 -20 10 -8 13 19 13 30 0 30 -5 0 -10 -10 -10
-22z"/>
<path d="M2080 2436 c0 -24 17 -28 23 -6 3 13 0 20 -9 20 -8 0 -14 -6 -14 -14z"/>
<path d="M1874 2418 c-3 -4 -22 -7 -42 -4 -60 6 -81 -13 -44 -40 16 -12 16
-13 -2 -20 -13 -5 -23 -2 -31 9 -16 22 -25 21 -25 -2 0 -34 64 -34 75 -1 3 10
14 19 23 19 9 0 32 3 50 7 21 4 32 2 32 -5 0 -6 5 -11 10 -11 6 0 10 11 10 24
0 17 -7 25 -25 28 -14 3 -28 1 -31 -4z"/>
<path d="M2034 2379 c-10 -16 19 -20 34 -6 14 15 13 16 -7 14 -12 -1 -25 -5
-27 -8z"/>
<path d="M1845 2357 c-16 -13 -13 -14 28 -13 48 1 60 9 31 20 -24 9 -38 7 -59
-7z"/>
<path d="M1950 2336 c0 -2 7 -6 15 -10 8 -3 15 -1 15 4 0 6 -7 10 -15 10 -8 0
-15 -2 -15 -4z"/>
<path d="M6630 9930 c0 -13 11 -13 30 0 12 8 11 10 -7 10 -13 0 -23 -4 -23
-10z"/>
<path d="M6652 9908 c-15 -15 -16 -38 -2 -38 12 0 23 25 18 40 -2 7 -7 7 -16
-2z"/>
<path d="M7600 9650 c0 -5 4 -10 9 -10 6 0 13 5 16 10 3 6 -1 10 -9 10 -9 0
-16 -4 -16 -10z"/>
<path d="M7607 9593 c-4 -3 -7 -11 -7 -17 0 -6 5 -5 12 2 6 6 9 14 7 17 -3 3
-9 2 -12 -2z"/>
<path d="M7635 9520 c-3 -5 -1 -10 4 -10 6 0 11 5 11 10 0 6 -2 10 -4 10 -3 0
-8 -4 -11 -10z"/>
<path d="M7720 9269 c0 -5 5 -7 10 -4 6 3 10 8 10 11 0 2 -4 4 -10 4 -5 0 -10
-5 -10 -11z"/>
<path d="M7780 9119 c0 -11 4 -18 10 -14 5 3 7 12 3 20 -7 21 -13 19 -13 -6z"/>
<path d="M9322 9028 l-33 -9 34 -38 c19 -21 37 -54 41 -74 8 -42 16 -46 34
-17 7 11 21 20 31 20 10 0 22 7 25 16 4 12 2 15 -9 11 -17 -7 -55 37 -55 64 0
26 -29 38 -68 27z"/>
<path d="M9256 8973 c-11 -12 -43 -88 -51 -122 l-7 -31 60 0 c93 0 96 3 61 61
-16 27 -32 61 -35 74 -6 25 -15 31 -28 18z"/>
<path d="M8303 8703 c-18 -7 -16 -30 3 -37 24 -9 34 -7 34 8 0 18 -22 35 -37
29z"/>
<path d="M9130 8547 c-28 -14 -38 -44 -17 -52 20 -8 67 12 67 29 0 25 -24 36
-50 23z"/>
<path d="M9007 8533 c-16 -15 -5 -33 19 -33 20 0 25 4 20 16 -3 9 -6 18 -6 20
0 7 -26 5 -33 -3z"/>
<path d="M8190 8470 c-18 -17 -29 -34 -26 -37 3 -4 20 8 38 25 40 42 30 53
-12 12z"/>
<path d="M245 7670 c3 -5 8 -10 11 -10 2 0 4 5 4 10 0 6 -5 10 -11 10 -5 0 -7
-4 -4 -10z"/>
<path d="M1021 494 c0 -11 3 -14 6 -6 3 7 2 16 -1 19 -3 4 -6 -2 -5 -13z"/>
<path d="M1114 290 c0 -13 4 -16 10 -10 7 7 7 13 0 20 -6 6 -10 3 -10 -10z"/>
<path d="M1105 240 c3 -5 8 -10 11 -10 2 0 4 5 4 10 0 6 -5 10 -11 10 -5 0 -7
-4 -4 -10z"/>
<path d="M1234 201 c3 -5 15 -7 26 -4 28 7 25 13 -6 13 -14 0 -23 -4 -20 -9z"/>
<path d="M1376 150 c-11 -3 -15 -9 -10 -12 5 -3 18 -2 28 2 11 3 15 9 10 12
-5 3 -18 2 -28 -2z"/>
</g>
</svg>
